<?xml version="1.0" encoding="UTF-8"?>
<svg xmlns="http://www.w3.org/2000/svg" xml:space="preserve" id="Icons" x="0" y="0" version="1.1" viewBox="0 0 48 48">
  <style>
    .st3{fill:none;stroke:#45413c;stroke-linecap:round;stroke-linejoin:round;stroke-miterlimit:10}.st58{fill:#6dd627}.st67{fill:#9ceb60}.st78{fill:#9f5ae5}.st79{fill:#803ec2}.st81{fill:#bf8df2}
  </style>
  <g id="XMLID_12524_">
    <path id="XMLID_12555_" d="M17.2 18.1c-2.9-.6-6.8-.6-8.2 2-1.9 3.3 1.1 4.9 2.9 3.2 1.8-1.7-1.6-6-8-3.8" class="st3"/>
    <circle id="XMLID_12554_" cx="34.7" cy="38.8" r="5.1" class="st78" transform="matrix(.8309 -.5565 .5565 .8309 -15.7263 25.8592)"/>
    <path id="XMLID_12553_" d="M39.4 37c-.2.2-.4.3-.6.5-1.1.7-2.4 1.1-3.6 1.1-.3 1.6-1.2 3.1-2.7 4.2-.2.2-.5.3-.8.4-.5-.4-1-.8-1.4-1.4-1.2-1.8-1.1-4 0-5.7.4-.5.8-1 1.4-1.4.7-.5 1.5-.8 2.3-.8 1.8-.2 3.7.6 4.8 2.2.3.2.5.5.6.9z" class="st79"/>
    <circle id="XMLID_12552_" cx="34.7" cy="38.8" r="5.1" class="st3" transform="matrix(.8309 -.5565 .5565 .8309 -15.7263 25.8592)"/>
    <circle id="XMLID_12551_" cx="27.2" cy="18.5" r="5.7" fill="#803ec2" stroke="#45413c" stroke-linecap="round" stroke-linejoin="round" stroke-miterlimit="10" transform="matrix(.8309 -.5565 .5565 .8309 -5.676 18.2724)"/>
    <ellipse id="XMLID_12550_" cx="26.7" cy="44.3" fill="#45413c" opacity=".15" rx="13.1" ry="1.7"/>
    <circle id="XMLID_12549_" cx="18.7" cy="24.2" r="5.7" class="st78" transform="rotate(-33.812 18.7168169 24.1587214)"/>
    <path id="XMLID_12548_" d="M15.6 22.4c2.6-1.7 6.1-1 7.9 1.6.4.5.6 1.1.8 1.7.4-1.5.2-3.2-.8-4.7-1.7-2.6-5.3-3.3-7.9-1.6-2.1 1.4-2.9 3.9-2.3 6.2.3-1.2 1.1-2.4 2.3-3.2z" class="st81"/>
    <circle id="XMLID_12547_" cx="18.7" cy="24.2" r="5.7" class="st3" transform="rotate(-33.812 18.7168169 24.1587214)"/>
    <circle id="XMLID_12546_" cx="17.9" cy="32.2" r="5.7" class="st78" transform="rotate(-33.812 17.94594902 32.2115744)"/>
    <path id="XMLID_12545_" d="M14.8 30.8c2.6-1.7 6.1-1 7.9 1.6.3.5.6 1 .7 1.5.5-1.6.3-3.3-.7-4.8-1.7-2.6-5.3-3.3-7.9-1.6-2.1 1.4-3 4-2.3 6.4.4-1.3 1.1-2.4 2.3-3.1z" class="st81"/>
    <circle id="XMLID_12544_" cx="17.9" cy="32.2" r="5.7" class="st3" transform="rotate(-33.812 17.94594902 32.2115744)"/>
    <circle id="XMLID_12543_" cx="33.7" cy="21" r="5.7" class="st78" transform="matrix(.8309 -.5565 .5565 .8309 -5.9779 22.2979)"/>
    <path id="XMLID_12542_" d="M30.5 19.4c2.6-1.7 6.1-1 7.9 1.6.3.5.6 1 .7 1.6.5-1.6.2-3.3-.7-4.8-1.7-2.6-5.3-3.3-7.9-1.6-2.1 1.4-3 4-2.3 6.3.4-1.2 1.2-2.3 2.3-3.1z" class="st81"/>
    <circle id="XMLID_12541_" cx="33.7" cy="21" r="5.7" class="st3" transform="matrix(.8309 -.5565 .5565 .8309 -5.9779 22.2979)"/>
    <circle id="XMLID_12540_" cx="34.8" cy="29.8" r="5.7" class="st78" transform="matrix(.8309 -.5565 .5565 .8309 -10.7008 24.4158)"/>
    <path id="XMLID_12539_" d="M31.6 27.5c2.6-1.7 6.1-1 7.9 1.6.4.6.7 1.3.8 2 .3-1.5.1-3-.8-4.4-1.7-2.6-5.3-3.3-7.9-1.6-2 1.3-2.9 3.7-2.4 5.9.4-1.4 1.2-2.7 2.4-3.5z" class="st81"/>
    <circle id="XMLID_12538_" cx="34.8" cy="29.8" r="5.7" class="st3" transform="matrix(.8309 -.5565 .5565 .8309 -10.7008 24.4158)"/>
    <circle id="XMLID_12537_" cx="26.5" cy="36.8" r="5.7" class="st78" transform="rotate(-33.812 26.47047693 36.7656961)"/>
    <path id="XMLID_12536_" d="M31.9 35.3c-.3.3-.7.7-1.1.9-3 2-6.9 1.5-8.7-1.2-.2-.3-.4-.7-.5-1 .4-.7 1-1.4 1.8-1.9 2.6-1.7 6.1-1 7.9 1.6.3.4.5 1 .6 1.6z" class="st79"/>
    <circle id="XMLID_12535_" cx="26.5" cy="36.8" r="5.7" class="st3" transform="rotate(-33.812 26.47047693 36.7656961)"/>
    <path id="XMLID_12534_" d="M25.6 22.3s-1.7-3.7-6.8-7.1c-3-2-5.8-2.6-7.2-2.7-.5-.1-1 .2-1.2.7l-.6 1.4c-.3.7.2 1.5 1 1.6 1.6.1 4.1.5 6.6 2 5.5 3.3 7 6.3 7 6.3l1.2-2.2z" class="st58"/>
    <path id="XMLID_12533_" d="M18.1 16.7c4 2.4 6.1 5.2 6.9 6.5l.5-.9s-1.7-3.7-6.8-7.1c-3-2-5.8-2.6-7.2-2.7-.5-.1-1 .2-1.2.7l-.3.9c1.6.1 4.8.6 8.1 2.6z" class="st67"/>
    <path id="XMLID_12532_" d="M25.6 22.3s-1.7-3.7-6.8-7.1c-3-2-5.8-2.6-7.2-2.7-.5-.1-1 .2-1.2.7l-.6 1.4c-.3.7.2 1.5 1 1.6 1.6.1 4.1.5 6.6 2 5.5 3.3 7 6.3 7 6.3l1.2-2.2z" class="st3"/>
    <circle id="XMLID_12531_" cx="27.6" cy="27.1" r="6.8" class="st78" transform="matrix(.8309 -.5565 .5565 .8309 -10.4455 19.925)"/>
    <path id="XMLID_12530_" d="M23.8 25.4c3.1-2.1 7.4-1.3 9.5 1.9.4.6.7 1.2.9 1.8.6-1.9.3-4-.9-5.8-2.1-3.1-6.3-4-9.5-1.9-2.6 1.7-3.6 4.8-2.7 7.6.4-1.3 1.3-2.7 2.7-3.6z" class="st81"/>
    <circle id="XMLID_12529_" cx="27.6" cy="27.1" r="6.8" class="st3" transform="matrix(.8309 -.5565 .5565 .8309 -10.4455 19.925)"/>
    <path id="XMLID_12528_" d="M16.4 5.3c.1-.5.7-.7 1.1-.4l2.1 1.8c.3.3.8.2 1-.2l.1-.2c.8-1.3 2-2.2 3.3-2.7l1-.3c.3-.1.7.1.8.4l.4.9c.6 1.1.8 2.4.7 3.7v.3c0 .5.3.9.7.8l2.2-.1c.5 0 .9.6.7 1.1l-.3.7c-1.2 2.6-3.5 4.4-6.2 4.7l-3.6.5-2.3-3c-1.8-2.2-2.4-5.2-1.7-8z" class="st58"/>
    <path id="XMLID_12527_" d="M16.4 7.6c.1-.5.7-.7 1.1-.4L19.6 9c.3.3.8.2 1-.2l.1-.2c.8-1.3 1.9-2.2 3.3-2.7l1-.3c.3-.1.7.1.8.4l.4.9c.5 1.2.7 2.4.6 3.7v.3c0 .5.3.9.7.8l2.2-.1h.1c.1-.2.2-.3.2-.5l.3-.7c.2-.5-.1-1.1-.7-1.1l-2.2.1c-.4 0-.8-.4-.7-.8v-.3c.3-1.3.1-2.6-.4-3.7l-.4-.9c-.2-.3-.5-.5-.8-.4l-1 .3c-1.3.4-2.5 1.4-3.3 2.7l-.1.2c-.2.4-.7.4-1 .2l-2.1-1.8c-.4-.3-1-.1-1.1.4-.3 1.1-.3 2.3-.2 3.4-.1-.4 0-.7.1-1.1z" class="st67"/>
    <path id="XMLID_12526_" d="M16.4 5.3c.1-.5.7-.7 1.1-.4l2.1 1.8c.3.3.8.2 1-.2l.1-.2c.8-1.3 2-2.2 3.3-2.7l1-.3c.3-.1.7.1.8.4l.4.9c.6 1.1.8 2.4.7 3.7v.3c0 .5.3.9.7.8l2.2-.1c.5 0 .9.6.7 1.1l-.3.7c-1.2 2.6-3.5 4.4-6.2 4.7l-3.6.5-2.3-3c-1.8-2.2-2.4-5.2-1.7-8z" class="st3"/>
    <path id="XMLID_12525_" d="M20.3 16.3c-.1-2 .9-4.9 2.9-7.5" class="st3"/>
  </g>
</svg>